<svg xmlns="http://www.w3.org/2000/svg" width="150" height="28" viewBox="0 0 150 28" fill="none">
  <path d="M0 0H23.2553V5.36346H14.9317V27.6247H8.52929V5.34164H0V0Z" fill="black"/>
  <path d="M24.3144 6.7294V27.6246H30.7869V15.331C30.7869 15.331 31.4083 11.1851 37.4081 12.4027V6.99124C37.4081 6.99124 31.9816 5.18015 30.5899 11.0106V6.72504H24.3188L24.3144 6.7294Z" fill="black"/>
  <path d="M54.7642 8.4271C53.4908 7.47137 51.6177 6.72511 48.8694 6.72511C48.8694 6.72511 40.3752 5.9003 39.163 13.3803H45.1365C45.1365 13.3803 45.1365 11.7569 47.0577 11.303C47.7448 11.1416 48.4668 11.1677 49.1452 11.3641C49.9504 11.5998 50.9613 12.1409 50.9613 13.3847V15.2831C50.9613 15.2831 44.1475 15.078 42.0031 16.2519C42.0031 16.2519 39.5874 17.1073 38.7034 19.9832C38.2702 21.3884 38.3271 22.9115 38.8522 24.2862C39.3555 25.5911 40.3839 27.1272 42.4889 27.6247C42.4889 27.6247 48.6681 29.4664 51.2983 24.6659V27.6247H57.3856V13.8255C57.3856 11.722 56.4535 9.69269 54.7686 8.43147L54.7642 8.4271ZM50.9963 20.8517C50.9963 21.1397 50.9438 21.4321 50.8213 21.6939C50.4405 22.5275 49.3202 24.0854 46.3225 23.6359C45.8586 23.5661 45.4078 23.3916 45.0796 23.0642C44.6726 22.6628 44.34 21.9689 44.6726 20.8211C44.7777 20.4633 44.9746 20.1359 45.2547 19.8872C45.7842 19.4115 46.6507 18.9664 48.0467 18.9664H50.9963V20.8517Z" fill="black"/>
  <path d="M60.0726 10.2862C60.0726 10.2862 64.6808 21.3448 66.0768 27.4981H73.3545C73.3545 27.4981 77.0262 14.8903 84.9428 5.75626L79.5688 3.57422C79.5688 3.57422 72.4705 11.543 69.8623 21.1484C69.8623 21.1484 67.3241 12.0624 65.7311 8.98568L60.077 10.2905L60.0726 10.2862Z" fill="#4E79F0"/>
  <path d="M146.941 9.23442C145.064 7.30549 142.39 6.67706 139.523 6.67706C136.495 6.67706 133.847 7.44514 131.948 9.57045C130.254 11.4688 129.243 14.563 129.243 17.3385C129.243 20.1141 130.162 22.7849 131.764 24.6615C133.668 26.8871 136.412 28 139.523 28C142.81 28 145.786 26.7257 147.685 24.2774C149.098 22.4576 150 19.8522 150 17.3385C150 14.3928 148.818 11.1633 146.937 9.23442H146.941ZM142.574 21.1702C141.878 22.5361 140.779 23.2519 139.563 23.2562C138.412 23.265 137.388 22.6496 136.674 21.4189C136.075 20.3803 135.69 18.8529 135.681 17.356C135.672 15.8111 136.075 14.0916 136.696 13.0312C137.392 11.8441 138.372 11.4121 139.493 11.4077C140.556 11.4034 141.545 11.7438 142.25 12.813C142.954 13.8822 143.366 15.6758 143.374 17.3123C143.383 18.7088 143.094 20.1577 142.578 21.1746L142.574 21.1702Z" fill="black"/>
  <path d="M99.5507 9.23442C97.6733 7.30549 94.9994 6.67706 92.133 6.67706C89.1046 6.67706 86.457 7.44514 84.5577 9.57045C82.8641 11.4688 81.7526 14.563 81.7526 17.3385C81.7526 20.1141 82.7679 22.7849 84.3739 24.6615C86.2776 26.8871 89.0215 28 92.133 28C95.4196 28 98.3954 26.7257 100.295 24.2774C101.708 22.4576 102.509 19.8522 102.509 17.3385C102.509 14.3928 101.424 11.1633 99.5464 9.23442H99.5507ZM95.1832 21.1702C94.4874 22.5361 93.389 23.2519 92.1724 23.2562C91.0214 23.265 89.9974 22.6496 89.2841 21.4189C88.6845 20.3803 88.2994 18.8529 88.2907 17.356C88.2819 15.8111 88.6845 14.0916 89.306 13.0312C90.0018 11.8441 90.9821 11.4121 92.1024 11.4077C93.1658 11.4034 94.1548 11.7438 94.8594 12.813C95.564 13.8822 95.9753 15.6758 95.9841 17.3123C95.9928 18.7088 95.704 20.1577 95.1876 21.1746L95.1832 21.1702Z" fill="black"/>
  <path d="M119.537 0.0960382V10.9102C119.537 10.9102 117.651 5.77371 111.66 6.85164C111.66 6.85164 105.406 7.98631 105.24 16.2912C105.24 16.2912 104.885 24.5742 109.235 26.6777C109.235 26.6777 111.984 28.7986 116.329 27.2712C116.329 27.2712 118.325 26.4595 119.541 23.9109V27.6421H125.813V0.0916748H119.541L119.537 0.0960382ZM118.732 20.9258C118.018 22.2045 116.889 22.8766 115.642 22.8809C114.461 22.8897 113.41 22.318 112.684 21.1615C112.067 20.1883 111.673 18.7569 111.664 17.356C111.655 15.9115 112.067 14.2968 112.706 13.3061C113.419 12.1933 114.426 11.7918 115.576 11.7831C116.666 11.7743 117.686 12.0973 118.404 13.0966C119.126 14.096 119.546 15.7762 119.554 17.308C119.563 18.6172 119.266 19.9744 118.736 20.9258H118.732Z" fill="black"/>
</svg>