<svg xmlns="http://www.w3.org/2000/svg" width="150" height="28" viewBox="0 0 150 28" fill="none"><path d="M0 0H23.255V5.363H14.932V27.625H8.529V5.342H0V0Z" fill="#000"/><path d="M24.314 6.729V27.625H30.787V15.331C30.787 15.331 31.408 11.185 37.408 12.403V6.991C37.408 6.991 31.982 5.18 30.59 11.01V6.725H24.319L24.314 6.729Z" fill="#000"/><path d="M54.764 8.427C53.491 7.471 51.618 6.725 48.869 6.725C48.869 6.725 40.375 5.9 39.163 13.38H45.137C45.137 13.38 45.137 11.757 47.058 11.303C47.745 11.142 48.467 11.168 49.145 11.364C49.95 11.6 50.961 12.141 50.961 13.385V15.283C50.961 15.283 44.148 15.078 42.003 16.252C42.003 16.252 39.587 17.107 38.703 19.983C38.27 21.388 38.327 22.911 38.852 24.286C39.356 25.591 40.384 27.127 42.489 27.625C42.489 27.625 48.668 29.466 51.298 24.666V27.625H57.386V13.826C57.386 11.722 56.454 9.693 54.769 8.431L54.764 8.427ZM50.996 20.852C50.996 21.14 50.944 21.432 50.821 21.694C50.441 22.528 49.32 24.085 46.323 23.636C45.859 23.566 45.408 23.392 45.08 23.064C44.673 22.663 44.34 21.969 44.673 20.821C44.778 20.463 44.975 20.136 45.255 19.887C45.784 19.412 46.651 18.966 48.047 18.966H50.996V20.852Z" fill="#000"/><path d="M60.073 10.286C60.073 10.286 64.681 21.345 66.077 27.498H73.355C73.355 27.498 77.026 14.89 84.943 5.756L79.569 3.574C79.569 3.574 72.47 11.543 69.862 21.148C69.862 21.148 67.324 12.062 65.731 8.986L60.077 10.29L60.073 10.286Z" fill="#4E79F0"/><path d="M146.941 9.234C145.064 7.305 142.39 6.677 139.523 6.677C136.495 6.677 133.847 7.445 131.948 9.57C130.254 11.469 129.243 14.563 129.243 17.339C129.243 20.114 130.162 22.785 131.764 24.662C133.668 26.887 136.412 28 139.523 28C142.81 28 145.786 26.726 147.685 24.277C149.098 22.458 150 19.852 150 17.339C150 14.393 148.818 11.163 146.937 9.234H146.941ZM142.574 21.17C141.878 22.536 140.779 23.252 139.563 23.256C138.412 23.265 137.388 22.65 136.674 21.419C136.075 20.38 135.69 18.853 135.681 17.356C135.672 15.811 136.075 14.092 136.696 13.031C137.392 11.844 138.372 11.412 139.493 11.408C140.556 11.403 141.545 11.744 142.25 12.813C142.954 13.882 143.366 15.676 143.374 17.312C143.383 18.709 143.094 20.158 142.578 21.175L142.574 21.17Z" fill="#000"/><path d="M99.551 9.234C97.673 7.305 94.999 6.677 92.133 6.677C89.105 6.677 86.457 7.445 84.558 9.57C82.864 11.469 81.753 14.563 81.753 17.339C81.753 20.114 82.768 22.785 84.374 24.662C86.278 26.887 89.022 28 92.133 28C95.42 28 98.395 26.726 100.295 24.277C101.708 22.458 102.509 19.852 102.509 17.339C102.509 14.393 101.424 11.163 99.546 9.234H99.551ZM95.183 21.17C94.487 22.536 93.389 23.252 92.172 23.256C91.021 23.265 89.997 22.65 89.284 21.419C88.685 20.38 88.299 18.853 88.291 17.356C88.282 15.811 88.685 14.092 89.306 13.031C90.002 11.844 90.982 11.792 92.102 11.783C93.166 11.774 94.155 12.097 94.859 13.097C95.564 14.096 95.975 15.776 95.984 17.312C95.993 18.709 95.704 20.158 95.188 21.175L95.183 21.17Z" fill="#000"/><path d="M119.537 0.096V10.91C119.537 10.91 117.651 5.774 111.66 6.852C111.66 6.852 105.406 7.986 105.24 16.291C105.24 16.291 104.885 24.574 109.235 26.678C109.235 26.678 111.984 28.799 116.329 27.271C116.329 27.271 118.325 26.46 119.541 23.911V27.642H125.813V0.092H119.541L119.537 0.096ZM118.732 20.926C118.018 22.205 116.889 22.877 115.642 22.881C114.461 22.89 113.41 22.318 112.684 21.162C112.067 20.188 111.673 18.757 111.664 17.356C111.655 15.912 112.067 14.297 112.706 13.306C113.419 12.193 114.426 11.792 115.576 11.783C116.666 11.774 117.686 12.097 118.404 13.097C119.126 14.096 119.546 15.776 119.554 17.308C119.563 18.617 119.266 19.974 118.736 20.926H118.732Z" fill="#000"/></svg>