<svg width="15" height="15" viewBox="0 0 15 15" fill="none" xmlns="http://www.w3.org/2000/svg">
<path fill-rule="evenodd" clip-rule="evenodd" d="M7.51252 6.0724L13.274 0.310928C13.4661 0.125406 13.7233 0.0227499 13.9904 0.0250704C14.2574 0.0273909 14.5129 0.134501 14.7017 0.323333C14.8905 0.512165 14.9976 0.76761 15 1.03465C15.0023 1.30169 14.8996 1.55896 14.7141 1.75104L8.95263 7.51252L14.7141 13.274C14.8996 13.4661 15.0023 13.7233 15 13.9904C14.9976 14.2574 14.8905 14.5129 14.7017 14.7017C14.5129 14.8905 14.2574 14.9976 13.9904 15C13.7233 15.0023 13.4661 14.8996 13.274 14.7141L7.51252 8.95263L1.75104 14.7141C1.55809 14.895 1.30232 14.9938 1.03784 14.9895C0.773359 14.9852 0.520926 14.8782 0.333953 14.6911C0.14698 14.504 0.0401356 14.2515 0.036028 13.987C0.0319205 13.7225 0.130872 13.4668 0.311944 13.274L6.0724 7.51252L0.310926 1.75104C0.213652 1.65709 0.136063 1.54471 0.0826862 1.42045C0.0293093 1.29619 0.00121358 1.16255 3.84544e-05 1.02732C-0.00113667 0.892087 0.0246321 0.757977 0.0758416 0.63281C0.127051 0.507644 0.202676 0.39393 0.298302 0.298303C0.393929 0.202676 0.507643 0.127053 0.632809 0.0758435C0.757975 0.024634 0.892086 -0.00113669 1.02732 3.84387e-05C1.16255 0.00121356 1.29619 0.0293103 1.42045 0.0826872C1.54471 0.136064 1.65709 0.213654 1.75104 0.310928L7.51252 6.0724Z" fill="black"/>
</svg>
