<svg width="18" height="17" viewBox="0 0 18 17" fill="none" xmlns="http://www.w3.org/2000/svg">
<path d="M11 1.39539L10.5527 0.501026L10.5526 0.501045L11 1.39539ZM14.5996 1.39539L15.047 0.501027L15.0469 0.500996L14.5996 1.39539ZM17 5.39636L18 5.39636L18 5.3963L17 5.39636ZM15.7998 8.19812L16.507 8.90513L16.507 8.90509L15.7998 8.19812ZM9 14.9999L8.29279 15.7069L9 16.4143L9.70721 15.7069L9 14.9999ZM2.2002 8.19812L1.49295 8.90509L1.49299 8.90513L2.2002 8.19812ZM1 5.39636L0 5.3963V5.39636H1ZM3.40039 1.39539L2.9531 0.500996L2.95304 0.501027L3.40039 1.39539ZM7 1.39539L7.44739 0.501045L7.44735 0.501026L7 1.39539ZM9 3.39636L8.05128 3.71248L9 6.55973L9.94872 3.71248L9 3.39636ZM11 1.39539L11.4473 2.28975C12.031 1.99779 13.2134 1.82023 14.1523 2.28978L14.5996 1.39539L15.0469 0.500996C13.4259 -0.309683 11.5689 -0.00727662 10.5527 0.501026L11 1.39539ZM14.5996 1.39539L14.1523 2.28974C15.3666 2.89717 15.9999 4.11925 16 5.39643L17 5.39636L18 5.3963C17.9999 3.47245 17.0324 1.49411 15.047 0.501027L14.5996 1.39539ZM17 5.39636H16C16 6.30873 15.3933 7.19034 15.0926 7.49115L15.7998 8.19812L16.507 8.90509C17.0064 8.40559 18 7.04497 18 5.39636H17ZM15.7998 8.19812L15.0926 7.49111L8.29279 14.2929L9 14.9999L9.70721 15.7069L16.507 8.90513L15.7998 8.19812ZM9 14.9999L9.70721 14.2929L2.9074 7.49111L2.2002 8.19812L1.49299 8.90513L8.29279 15.7069L9 14.9999ZM2.2002 8.19812L2.90744 7.49115C2.60674 7.19034 2 6.30873 2 5.39636H1H0C0 7.04497 0.993648 8.40559 1.49295 8.90509L2.2002 8.19812ZM1 5.39636L2 5.39643C2.00008 4.11925 2.63336 2.89717 3.84774 2.28974L3.40039 1.39539L2.95304 0.501027C0.967628 1.49411 0.000125323 3.47245 2.12165e-09 5.3963L1 5.39636ZM3.40039 1.39539L3.84768 2.28978C4.78657 1.82023 5.96897 1.99779 6.55265 2.28975L7 1.39539L7.44735 0.501026C6.43112 -0.00727662 4.57412 -0.309683 2.9531 0.500996L3.40039 1.39539ZM7 1.39539L6.55261 2.28973C6.74815 2.38754 7.09504 2.6005 7.41862 2.88584C7.75453 3.18206 7.97191 3.47429 8.05128 3.71248L9 3.39636L9.94872 3.08024C9.70811 2.35813 9.19218 1.78327 8.74143 1.38578C8.27835 0.977426 7.78523 0.670046 7.44739 0.501045L7 1.39539ZM9 3.39636L9.94872 3.71248C10.0281 3.47429 10.2455 3.18206 10.5814 2.88584C10.905 2.6005 11.2518 2.38754 11.4474 2.28973L11 1.39539L10.5526 0.501045C10.2148 0.670046 9.72165 0.977426 9.25857 1.38578C8.80782 1.78327 8.29189 2.35813 8.05128 3.08024L9 3.39636Z" fill="black"/>
</svg>
